<?xml version="1.0"?>
<svg xmlns="http://www.w3.org/2000/svg" xmlns:xlink="http://www.w3.org/1999/xlink" viewBox="0 0 64 64" width="512" height="512"><defs><linearGradient id="New_Gradient_Swatch_1" x1="32" y1="0.442" x2="32" y2="67.459" gradientUnits="userSpaceOnUse"><stop offset="0" stop-color="#fff33b"/><stop offset="0.014" stop-color="#fee72e"/><stop offset="0.042" stop-color="#fed51b"/><stop offset="0.07" stop-color="#fdca10"/><stop offset="0.1" stop-color="#fdc70c"/><stop offset="0.4" stop-color="#f3903f"/><stop offset="0.8" stop-color="#ed683c"/><stop offset="1" stop-color="#e93e3a"/></linearGradient><linearGradient id="New_Gradient_Swatch_1-2" x1="25" y1="0.442" x2="25" y2="67.459" xlink:href="#New_Gradient_Swatch_1"/><linearGradient id="New_Gradient_Swatch_1-4" x1="39" y1="0.442" x2="39" y2="67.459" xlink:href="#New_Gradient_Swatch_1"/></defs><g id="virus-coronavirus-flu-influenza-bacteria"><path d="M55.49,35.11A3.928,3.928,0,0,0,58,36a4,4,0,0,0,0-8,3.928,3.928,0,0,0-2.51.89l-6.9-.49a16.268,16.268,0,0,0-.58-2.12l7.88-5.33a4,4,0,0,0,1.66-7.81,4,4,0,0,0-4.76,2.42l-8.88,4.32c-.15-.15-.3-.29-.45-.43L48.44,9.21a3.884,3.884,0,0,0,2.02-1.73,3.919,3.919,0,0,0,.4-3.03A3.914,3.914,0,0,0,49,2.03a3.991,3.991,0,0,0-5.47,1.46,4.014,4.014,0,0,0-.48,2.62L36.6,15.64c-.34-.1-.67-.15-1-.22l-.49-6.91A3.928,3.928,0,0,0,36,6a4,4,0,0,0-8,0,3.928,3.928,0,0,0,.89,2.51l-.49,6.91c-.33.07-.66.12-1,.22L20.95,6.11a4,4,0,0,0-7.81-1.66,3.919,3.919,0,0,0,.4,3.03,3.884,3.884,0,0,0,2.02,1.73l4.98,10.24c-.15.14-.3.28-.45.43l-8.88-4.32a3.884,3.884,0,0,0-1.73-2.02A3.985,3.985,0,0,0,4.03,15a3.991,3.991,0,0,0,1.46,5.47,4.014,4.014,0,0,0,2.62.48l7.88,5.33a16.268,16.268,0,0,0-.58,2.12l-6.9.49A3.928,3.928,0,0,0,6,28a4,4,0,0,0,0,8,3.928,3.928,0,0,0,2.51-.89l6.9.49a16.268,16.268,0,0,0,.58,2.12L8.11,43.05a4,4,0,0,0-1.66,7.81,3.919,3.919,0,0,0,3.03-.4,3.884,3.884,0,0,0,1.73-2.02l8.88-4.32c.15.15.3.29.45.43L15.56,54.79A3.99,3.99,0,0,0,15,61.97a3.935,3.935,0,0,0,2,.55,4.055,4.055,0,0,0,1.03-.14,3.99,3.99,0,0,0,2.92-4.49l6.45-9.53c.34.1.67.15,1,.22l.49,6.91A3.928,3.928,0,0,0,28,58a4,4,0,0,0,8,0,3.928,3.928,0,0,0-.89-2.51l.49-6.91c.33-.07.66-.12,1-.22l6.45,9.53a4,4,0,0,0,2.92,4.49,3.935,3.935,0,0,0,3.03-.4,3.96,3.96,0,0,0,1.86-2.43,4,4,0,0,0-2.42-4.76L43.46,44.55c.15-.14.3-.28.45-.43l8.88,4.32a3.99,3.99,0,0,0,7.18.56,3.991,3.991,0,0,0-4.08-5.95l-7.88-5.33a16.268,16.268,0,0,0,.58-2.12ZM43.07,36l3.44-.25a16.142,16.142,0,0,1-.64,1.97.992.992,0,0,0,.36,1.21l8.9,6.02a1.035,1.035,0,0,0,.84.13,2.048,2.048,0,0,1,1.55.18A2.006,2.006,0,0,1,58.24,48a1.961,1.961,0,0,1-1.21.93,1.991,1.991,0,0,1-1.51-.19,2.011,2.011,0,0,1-.94-1.25,1.008,1.008,0,0,0-.53-.66L44.13,42a1.022,1.022,0,0,0-1.18.22,12.655,12.655,0,0,1-1.36,1.31,1.01,1.01,0,0,0-.26,1.21l5.5,11.31a1.008,1.008,0,0,0,.66.53,2.011,2.011,0,0,1,1.25.94A2.018,2.018,0,0,1,48,60.25a2.06,2.06,0,0,1-1.52.2,1.981,1.981,0,0,1-1.21-.92,2.036,2.036,0,0,1-.19-1.56,1.035,1.035,0,0,0-.13-.84l-7.11-10.5a1,1,0,0,0-1.14-.39c-.32.1-.63.19-.95.27L36,43.07l-2-.14-.92,12.85a1,1,0,0,0,.31.79,2,2,0,1,1-2.78,0,1,1,0,0,0,.31-.79L30,42.93l-2,.14.25,3.44c-.32-.08-.63-.17-.95-.27a1,1,0,0,0-1.14.39l-7.11,10.5a1.035,1.035,0,0,0-.13.84,2.048,2.048,0,0,1-.18,1.55,2,2,0,0,1-2.74.72,1.961,1.961,0,0,1-.93-1.21,1.991,1.991,0,0,1,.19-1.51,2.011,2.011,0,0,1,1.25-.94,1.008,1.008,0,0,0,.66-.53l5.5-11.31a1.01,1.01,0,0,0-.26-1.21,12.655,12.655,0,0,1-1.36-1.31A1.022,1.022,0,0,0,19.87,42L9.95,46.83a1.008,1.008,0,0,0-.53.66,2.011,2.011,0,0,1-.94,1.25,1.985,1.985,0,0,1-1.51.19,2,2,0,0,1-.5-3.66,2.036,2.036,0,0,1,1.56-.19,1.035,1.035,0,0,0,.84-.13l8.9-6.02a.992.992,0,0,0,.36-1.21,16.142,16.142,0,0,1-.64-1.97l3.44.25.14-2L8.22,33.08a1.032,1.032,0,0,0-.79.31,2,2,0,1,1,0-2.78,1.07,1.07,0,0,0,.79.31L21.07,30l-.14-2-3.44.25a16.142,16.142,0,0,1,.64-1.97.992.992,0,0,0-.36-1.21l-8.9-6.02a1,1,0,0,0-.84-.13,2.048,2.048,0,0,1-1.55-.18A2.006,2.006,0,0,1,5.76,16a1.961,1.961,0,0,1,1.21-.93,1.985,1.985,0,0,1,1.51.19,2.011,2.011,0,0,1,.94,1.25,1.008,1.008,0,0,0,.53.66L19.87,22a1.022,1.022,0,0,0,1.18-.22,12.655,12.655,0,0,1,1.36-1.31,1.01,1.01,0,0,0,.26-1.21L17.17,7.95a1.008,1.008,0,0,0-.66-.53,2.011,2.011,0,0,1-1.25-.94A2.018,2.018,0,0,1,16,3.75a2.06,2.06,0,0,1,1.52-.2,1.981,1.981,0,0,1,1.21.92,2.036,2.036,0,0,1,.19,1.56,1.035,1.035,0,0,0,.13.84l7.11,10.5a1,1,0,0,0,1.14.39c.32-.1.63-.19.95-.27L28,20.93l2,.14.92-12.85a1,1,0,0,0-.31-.79,2,2,0,1,1,2.78,0,1,1,0,0,0-.31.79L34,21.07l2-.14-.25-3.44c.32.08.63.17.95.27a1,1,0,0,0,1.14-.39l7.11-10.5a1.035,1.035,0,0,0,.13-.84,2.048,2.048,0,0,1,.18-1.55A2,2,0,0,1,48,3.76a1.961,1.961,0,0,1,.93,1.21,1.991,1.991,0,0,1-.19,1.51,2.011,2.011,0,0,1-1.25.94,1.008,1.008,0,0,0-.66.53l-5.5,11.31a1.01,1.01,0,0,0,.26,1.21,12.655,12.655,0,0,1,1.36,1.31,1.022,1.022,0,0,0,1.18.22l9.92-4.83a1.008,1.008,0,0,0,.53-.66,2.011,2.011,0,0,1,.94-1.25,1.985,1.985,0,0,1,1.51-.19,2,2,0,0,1,.5,3.66,2.031,2.031,0,0,1-1.56.19,1,1,0,0,0-.84.13l-8.9,6.02a.992.992,0,0,0-.36,1.21,16.142,16.142,0,0,1,.64,1.97L43.07,28l-.14,2,12.85.92a1.07,1.07,0,0,0,.79-.31,2,2,0,1,1,0,2.78,1.032,1.032,0,0,0-.79-.31L42.93,34Z" style="fill:url(#New_Gradient_Swatch_1)"/><path d="M25,28a3,3,0,0,0,0-6v2a1,1,0,1,1-1,1H22A3,3,0,0,0,25,28Z" style="fill:url(#New_Gradient_Swatch_1-2)"/><path d="M25,36a3,3,0,0,0-3,3h2a1,1,0,1,1,1,1v2a3,3,0,0,0,0-6Z" style="fill:url(#New_Gradient_Swatch_1-2)"/><path d="M39,36v2a1,1,0,1,1-1,1H36a3,3,0,1,0,3-3Z" style="fill:url(#New_Gradient_Swatch_1-4)"/><path d="M39,22a3,3,0,0,0,0,6V26a1,1,0,1,1,1-1h2A3,3,0,0,0,39,22Z" style="fill:url(#New_Gradient_Swatch_1-4)"/><path d="M32,28a4,4,0,1,0,4,4A4,4,0,0,0,32,28Zm0,6a2,2,0,1,1,2-2A2,2,0,0,1,32,34Z" style="fill:url(#New_Gradient_Swatch_1)"/></g></svg>
